<?xml version="1.0" encoding="UTF-8"?>
<svg xmlns="http://www.w3.org/2000/svg" xmlns:xlink="http://www.w3.org/1999/xlink" width="3304.5" height="1512.42" viewBox="0 0 3304.5 1512.42">
<defs>
<clipPath id="clip-0">

</clipPath>
<clipPath id="clip-1">
<path clip-rule="nonzero" d="M 0 432 L 1827 432 L 1827 1512.421875 L 0 1512.421875 Z M 0 432 "/>
</clipPath>
<clipPath id="clip-2">
<path clip-rule="nonzero" d="M 1079 116 L 3189 116 L 3189 1397 L 1079 1397 Z M 1079 116 "/>
</clipPath>
<clipPath id="clip-3">
<path clip-rule="evenodd" d="M 1457.410156 773.527344 C 1661.128906 773.527344 1826.859375 939.261719 1826.859375 1142.949219 C 1826.859375 1240.890625 1788.539062 1330.058594 1726.128906 1396.25 L 2795.160156 1396.25 C 3011.980469 1396.25 3188.320312 1219.878906 3188.320312 1003.089844 C 3188.320312 786.320312 3011.980469 609.90625 2795.160156 609.90625 C 2744.070312 609.90625 2694.328125 619.601562 2647.308594 638.65625 C 2620.308594 649.632812 2589.261719 638.851562 2574.921875 613.425781 C 2505.109375 490.070312 2373.890625 413.460938 2232.398438 413.460938 C 2221.519531 413.460938 2210.699219 413.921875 2200.011719 414.78125 C 2174.089844 416.910156 2149.53125 401.199219 2140.679688 376.511719 C 2084.839844 220.769531 1936.070312 116.171875 1770.5 116.171875 C 1553.699219 116.171875 1377.339844 292.558594 1377.339844 509.359375 C 1377.339844 525.175781 1378.308594 541.210938 1380.191406 556.996094 C 1382.441406 575.855469 1375.371094 594.621094 1361.199219 607.253906 C 1347.058594 619.902344 1327.558594 624.839844 1309.140625 620.453125 C 1233.808594 602.65625 1152.769531 608.054688 1079.941406 635.148438 C 1080.460938 636.160156 1080.980469 637.183594 1081.480469 638.195312 C 1193.511719 641.949219 1297.53125 696.6875 1364.351562 785.347656 C 1394.578125 777.46875 1425.738281 773.527344 1457.410156 773.527344 "/>
</clipPath>
<linearGradient id="linear-pattern-0" gradientUnits="userSpaceOnUse" x1="0.0950754" y1="0" x2="0.904925" y2="0" gradientTransform="matrix(-0.00006909, -1580.64, 1580.64, -0.00006909, 2134.13, 1546.53)">
<stop offset="0" stop-color="rgb(53.875732%, 53.520203%, 53.520203%)" stop-opacity="1"/>
<stop offset="0.0625" stop-color="rgb(53.70636%, 53.361511%, 53.361511%)" stop-opacity="1"/>
<stop offset="0.125" stop-color="rgb(53.369141%, 53.044128%, 53.044128%)" stop-opacity="1"/>
<stop offset="0.1875" stop-color="rgb(53.030396%, 52.726746%, 52.726746%)" stop-opacity="1"/>
<stop offset="0.25" stop-color="rgb(52.693176%, 52.409363%, 52.409363%)" stop-opacity="1"/>
<stop offset="0.3125" stop-color="rgb(52.355957%, 52.090454%, 52.090454%)" stop-opacity="1"/>
<stop offset="0.375" stop-color="rgb(52.018738%, 51.773071%, 51.773071%)" stop-opacity="1"/>
<stop offset="0.4375" stop-color="rgb(51.681519%, 51.455688%, 51.455688%)" stop-opacity="1"/>
<stop offset="0.5" stop-color="rgb(51.344299%, 51.138306%, 51.138306%)" stop-opacity="1"/>
<stop offset="0.5625" stop-color="rgb(51.005554%, 50.820923%, 50.820923%)" stop-opacity="1"/>
<stop offset="0.625" stop-color="rgb(50.668335%, 50.50354%, 50.50354%)" stop-opacity="1"/>
<stop offset="0.6875" stop-color="rgb(50.331116%, 50.186157%, 50.186157%)" stop-opacity="1"/>
<stop offset="0.75" stop-color="rgb(49.993896%, 49.867249%, 49.867249%)" stop-opacity="1"/>
<stop offset="0.8125" stop-color="rgb(49.656677%, 49.549866%, 49.549866%)" stop-opacity="1"/>
<stop offset="0.875" stop-color="rgb(49.319458%, 49.232483%, 49.232483%)" stop-opacity="1"/>
<stop offset="0.9375" stop-color="rgb(48.982239%, 48.9151%, 48.9151%)" stop-opacity="1"/>
<stop offset="1" stop-color="rgb(48.643494%, 48.597717%, 48.597717%)" stop-opacity="1"/>
</linearGradient>
<clipPath id="clip-4">
<path clip-rule="nonzero" d="M 116 549 L 1711 549 L 1711 1397 L 116 1397 Z M 116 549 "/>
</clipPath>
<clipPath id="clip-5">
<path clip-rule="evenodd" d="M 1710.660156 1142.980469 C 1710.660156 1003.320312 1597.050781 889.699219 1457.398438 889.699219 C 1424.460938 889.699219 1392.441406 895.925781 1362.171875 908.21875 C 1335.089844 919.246094 1304.140625 908.398438 1289.761719 882.976562 C 1244.820312 803.523438 1160.261719 754.132812 1069.101562 754.132812 C 1062.070312 754.132812 1055.089844 754.433594 1048.238281 754.972656 C 1022.160156 757.070312 997.769531 741.417969 988.863281 716.703125 C 979.894531 691.699219 967.207031 668.742188 951.566406 648.371094 C 950.476562 647.113281 949.453125 645.800781 948.46875 644.421875 C 901.242188 585.363281 828.722656 549.011719 750.414062 549.011719 C 610.746094 549.011719 497.136719 662.636719 497.136719 802.261719 C 497.136719 812.425781 497.753906 822.773438 499.003906 832.964844 C 501.285156 851.773438 494.210938 870.550781 480.066406 883.210938 C 465.90625 895.871094 446.523438 900.757812 428.007812 896.476562 C 408.859375 891.984375 389.175781 889.699219 369.449219 889.699219 C 229.796875 889.699219 116.171875 1003.320312 116.171875 1142.949219 C 116.171875 1282.601562 229.808594 1396.230469 369.449219 1396.230469 L 1457.398438 1396.230469 C 1597.058594 1396.230469 1710.660156 1282.628906 1710.660156 1142.980469 "/>
</clipPath>
<linearGradient id="linear-pattern-1" gradientUnits="userSpaceOnUse" x1="0.035138" y1="0" x2="0.964857" y2="0" gradientTransform="matrix(-0.00003983, -911.264, 911.264, -0.00003983, 913.417, 1428.25)">
<stop offset="0" stop-color="rgb(54.275513%, 53.897095%, 53.897095%)" stop-opacity="1"/>
<stop offset="0.0625" stop-color="rgb(54.081726%, 53.713989%, 53.713989%)" stop-opacity="1"/>
<stop offset="0.125" stop-color="rgb(53.694153%, 53.349304%, 53.349304%)" stop-opacity="1"/>
<stop offset="0.1875" stop-color="rgb(53.30658%, 52.984619%, 52.984619%)" stop-opacity="1"/>
<stop offset="0.25" stop-color="rgb(52.919006%, 52.619934%, 52.619934%)" stop-opacity="1"/>
<stop offset="0.3125" stop-color="rgb(52.531433%, 52.255249%, 52.255249%)" stop-opacity="1"/>
<stop offset="0.375" stop-color="rgb(52.14386%, 51.890564%, 51.890564%)" stop-opacity="1"/>
<stop offset="0.4375" stop-color="rgb(51.756287%, 51.525879%, 51.525879%)" stop-opacity="1"/>
<stop offset="0.5" stop-color="rgb(51.368713%, 51.161194%, 51.161194%)" stop-opacity="1"/>
<stop offset="0.5625" stop-color="rgb(50.982666%, 50.796509%, 50.796509%)" stop-opacity="1"/>
<stop offset="0.625" stop-color="rgb(50.595093%, 50.431824%, 50.431824%)" stop-opacity="1"/>
<stop offset="0.6875" stop-color="rgb(50.20752%, 50.067139%, 50.067139%)" stop-opacity="1"/>
<stop offset="0.75" stop-color="rgb(49.819946%, 49.702454%, 49.702454%)" stop-opacity="1"/>
<stop offset="0.8125" stop-color="rgb(49.432373%, 49.337769%, 49.337769%)" stop-opacity="1"/>
<stop offset="0.875" stop-color="rgb(49.0448%, 48.973083%, 48.973083%)" stop-opacity="1"/>
<stop offset="0.9375" stop-color="rgb(48.657227%, 48.608398%, 48.608398%)" stop-opacity="1"/>
<stop offset="1" stop-color="rgb(48.269653%, 48.243713%, 48.243713%)" stop-opacity="1"/>
</linearGradient>
</defs>
<g clip-path="url(#clip-0)">
<path fill-rule="evenodd" fill="rgb(0%, 0%, 0.784302%)" fill-opacity="1" d="M 2795.160156 1512.421875 L 1457.398438 1512.421875 C 1425.328125 1512.421875 1399.308594 1486.421875 1399.308594 1454.351562 C 1399.308594 1422.28125 1425.328125 1396.25 1457.398438 1396.25 L 2795.160156 1396.25 C 3011.980469 1396.25 3188.320312 1219.878906 3188.320312 1003.089844 C 3188.320312 786.320312 3011.980469 609.90625 2795.160156 609.90625 C 2744.070312 609.90625 2694.328125 619.601562 2647.308594 638.65625 C 2620.308594 649.632812 2589.261719 638.851562 2574.921875 613.425781 C 2505.109375 490.070312 2373.890625 413.460938 2232.398438 413.460938 C 2221.519531 413.460938 2210.699219 413.921875 2200.011719 414.78125 C 2174.089844 416.910156 2149.53125 401.199219 2140.679688 376.511719 C 2084.839844 220.769531 1936.070312 116.171875 1770.5 116.171875 C 1553.699219 116.171875 1377.339844 292.558594 1377.339844 509.359375 C 1377.339844 525.175781 1378.308594 541.210938 1380.191406 556.996094 C 1382.441406 575.855469 1375.371094 594.621094 1361.199219 607.253906 C 1347.058594 619.902344 1327.558594 624.839844 1309.140625 620.453125 C 1213.96875 597.96875 1109.679688 612.519531 1024.351562 661.046875 C 996.46875 676.859375 961.023438 667.152344 945.160156 639.234375 C 929.320312 611.339844 939.050781 575.90625 966.972656 560.042969 C 1055.628906 509.609375 1159.378906 487.050781 1261.328125 495.550781 C 1268.671875 221.019531 1494.25 0 1770.5 0 C 1970.429688 0 2151.46875 117.839844 2233.710938 297.308594 C 2400.078125 297.738281 2555.328125 379.929688 2649.859375 514.828125 C 2696.820312 500.828125 2745.519531 493.761719 2795.160156 493.761719 C 3075.988281 493.761719 3304.5 722.269531 3304.5 1003.109375 C 3304.519531 1283.921875 3076.011719 1512.421875 2795.160156 1512.421875 "/>
</g>
<g clip-path="url(#clip-1)">
<path fill-rule="evenodd" fill="rgb(0%, 0%, 0.784302%)" fill-opacity="1" d="M 369.449219 889.699219 C 229.796875 889.699219 116.171875 1003.320312 116.171875 1142.949219 C 116.171875 1282.601562 229.808594 1396.230469 369.449219 1396.230469 L 1457.398438 1396.230469 C 1597.058594 1396.230469 1710.660156 1282.628906 1710.660156 1142.980469 C 1710.660156 1003.320312 1597.050781 889.699219 1457.398438 889.699219 C 1424.460938 889.699219 1392.441406 895.925781 1362.171875 908.21875 C 1335.089844 919.246094 1304.140625 908.398438 1289.761719 882.976562 C 1244.820312 803.523438 1160.261719 754.132812 1069.101562 754.132812 C 1062.070312 754.132812 1055.089844 754.433594 1048.238281 754.972656 C 1022.160156 757.070312 997.769531 741.417969 988.863281 716.703125 C 952.882812 616.394531 857.039062 549.011719 750.414062 549.011719 C 610.746094 549.011719 497.136719 662.636719 497.136719 802.261719 C 497.136719 812.425781 497.753906 822.773438 499.003906 832.964844 C 501.285156 851.773438 494.210938 870.550781 480.066406 883.210938 C 465.90625 895.871094 446.523438 900.757812 428.007812 896.476562 C 408.859375 891.984375 389.175781 889.699219 369.449219 889.699219 Z M 1457.398438 1512.421875 L 369.449219 1512.421875 C 165.734375 1512.421875 0 1346.691406 0 1142.949219 C 0 939.234375 165.734375 773.527344 369.449219 773.527344 C 373.652344 773.527344 377.867188 773.605469 382.070312 773.738281 C 396.6875 583.3125 556.285156 432.839844 750.414062 432.839844 C 891.5625 432.839844 1019.730469 513.84375 1081.480469 638.195312 C 1193.511719 641.949219 1297.53125 696.6875 1364.351562 785.347656 C 1394.578125 777.46875 1425.738281 773.527344 1457.410156 773.527344 C 1661.128906 773.527344 1826.859375 939.261719 1826.859375 1142.949219 C 1826.859375 1346.660156 1661.140625 1512.421875 1457.398438 1512.421875 "/>
</g>
<g clip-path="url(#clip-2)">
<g clip-path="url(#clip-3)">
<path fill-rule="nonzero" fill="url(#linear-pattern-0)" d="M 1079.941406 1396.25 L 3188.320312 1396.25 L 3188.320312 116.167969 L 1079.941406 116.171875 Z M 1079.941406 1396.25 "/>
</g>
</g>
<g clip-path="url(#clip-4)">
<g clip-path="url(#clip-5)">
<path fill-rule="nonzero" fill="url(#linear-pattern-1)" d="M 116.171875 1396.230469 L 1710.660156 1396.230469 L 1710.660156 549.011719 L 116.171875 549.011719 Z M 116.171875 1396.230469 "/>
</g>
</g>
</svg>
